HIERARCHY
ROOT Hips
{
	OFFSET -3.958830 18.904000 13.208200
	CHANNELS 6 Xposition Yposition Zposition Zrotation Yrotation Xrotation 
	JOINT LHipJoint
	{
		OFFSET 0.000000 0.000000 0.000000
		CHANNELS 3 Zrotation Yrotation Xrotation
		JOINT LeftUpLeg
		{
			OFFSET 1.800000 -1.400000 0.085000
			CHANNELS 3 Zrotation Yrotation Xrotation
			JOINT LeftLeg
			{
				OFFSET 2.215000 -6.000000 0.000000
				CHANNELS 3 Zrotation Yrotation Xrotation
				JOINT LeftFoot
				{
					OFFSET 2.500000 -6.900000 0.000000
					CHANNELS 3 Zrotation Yrotation Xrotation
					JOINT LeftToeBase
					{
						OFFSET 0.200000 -0.500000 1.950000
						CHANNELS 3 Zrotation Yrotation Xrotation
						End Site
						{
							OFFSET 0.000000 0.000000 0.000000
						}
					}
				}
			}
		}
	}
	JOINT RHipJoint
	{
		OFFSET 0.000000 0.000000 0.000000
		CHANNELS 3 Zrotation Yrotation Xrotation
		JOINT RightUpLeg
		{
			OFFSET -1.800000 -1.400000 0.085000
			CHANNELS 3 Zrotation Yrotation Xrotation
			JOINT RightLeg
			{
				OFFSET -2.215000 -6.000000 0.000000
				CHANNELS 3 Zrotation Yrotation Xrotation
				JOINT RightFoot
				{
					OFFSET -2.500000 -6.900000 0.000000
					CHANNELS 3 Zrotation Yrotation Xrotation
					JOINT RightToeBase
					{
						OFFSET -0.200000 -0.500000 1.950000
						CHANNELS 3 Zrotation Yrotation Xrotation
						End Site
						{
							OFFSET 0.000000 0.000000 0.000000
						}
					}
				}
			}
		}
	}
	JOINT LowerBack
	{
		OFFSET 0.000000 0.000000 0.000000
		CHANNELS 3 Zrotation Yrotation Xrotation
		JOINT Spine
		{
			OFFSET -0.087000 1.940000 -0.288900
			CHANNELS 3 Zrotation Yrotation Xrotation
			JOINT Spine1
			{
				OFFSET 0.000000 1.950000 0.060000
				CHANNELS 3 Zrotation Yrotation Xrotation
				JOINT Neck
				{
					OFFSET 0.000000 0.000000 0.000000
					CHANNELS 3 Zrotation Yrotation Xrotation
					JOINT Neck1
					{
						OFFSET 0.000000 1.600000 0.340000
						CHANNELS 3 Zrotation Yrotation Xrotation
						JOINT Head
						{
							OFFSET 0.000000 1.667000 -0.240000
							CHANNELS 3 Zrotation Yrotation Xrotation
							End Site
							{
								OFFSET 0.000000 0.000000 0.000000
							}
						}
					}
				}
				JOINT LeftShoulder
				{
					OFFSET 0.000000 0.000000 0.000000
					CHANNELS 3 Zrotation Yrotation Xrotation
					JOINT LeftArm
					{
						OFFSET 2.700000 1.550000 -0.730000
						CHANNELS 3 Zrotation Yrotation Xrotation
						JOINT LeftForeArm
						{
							OFFSET 5.450000 0.000000 0.000000
							CHANNELS 3 Zrotation Yrotation Xrotation
							JOINT LeftHand
							{
								OFFSET 3.450000 0.000000 0.000000
								CHANNELS 3 Zrotation Yrotation Xrotation
								JOINT LeftHandIndex1
								{
									OFFSET 0.750000 0.000000 0.000000
									CHANNELS 3 Zrotation Yrotation Xrotation
									End Site
									{
										OFFSET 0.000000 0.000000 0.000000
									}
								}
							}
						}
					}
				}
				JOINT RightShoulder
				{
					OFFSET 0.000000 0.000000 0.000000
					CHANNELS 3 Zrotation Yrotation Xrotation
					JOINT RightArm
					{
						OFFSET -2.700000 1.550000 -0.730000
						CHANNELS 3 Zrotation Yrotation Xrotation
						JOINT RightForeArm
						{
							OFFSET -5.450000 0.000000 0.000000
							CHANNELS 3 Zrotation Yrotation Xrotation
							JOINT RightHand
							{
								OFFSET -3.450000 0.000000 0.000000
								CHANNELS 3 Zrotation Yrotation Xrotation
								JOINT RightHandIndex1
								{
									OFFSET -0.750000 0.000000 0.000000
									CHANNELS 3 Zrotation Yrotation Xrotation
									End Site
									{
										OFFSET 0.000000 0.000000 0.000000
									}
								}
							}
						}
					}
				}
			}
		}
	}
}
MOTION
Frames: 13
Frame Time: 0.016667
-0.188020 17.607010 -2.067280 -10.460798 14.687515 5.887464 -15.046733 12.490164 2.773008 0.839313 -6.138884 -23.412412 9.230472 2.714710 42.420253 -0.464317 7.430171 2.160115 -0.672320 -0.917030 -0.768220 18.630436 -9.369450 4.747970 -8.628370 7.405279 -48.644832 14.854506 -10.582284 30.845028 0.050947 -5.421375 2.381222 -0.222520 1.430170 0.318440 -4.493869 -1.659120 -8.336912 20.771807 -9.883273 23.991759 -7.413504 -4.878284 8.818167 3.269970 0.160779 -8.096864 -1.253750 1.245161 35.551525 -1.508260 -2.100220 5.435190 11.398088 -6.097966 1.494885 13.914673 -8.574077 -0.821386 79.430769 -53.239527 -37.614889 -4.498417 2.192821 0.219070 0.819320 -0.633950 0.110940 -17.721423 4.044464 1.994524 -17.377825 4.135917 -4.001354 -70.004984 59.278210 -32.428597 1.492592 -0.893071 -0.725690 0.663190 0.871380 0.130300 
-0.079930 17.593610 -2.003620 -9.731467 9.436249 5.679377 -15.012124 12.973478 2.570688 -0.043743 -4.066902 -18.208132 6.620372 4.030525 39.519898 -0.536964 7.279498 2.333817 -0.646740 -0.846580 -0.733280 18.542461 -9.827430 4.330947 -3.719361 7.137643 -42.414938 10.081409 -4.506968 13.065917 0.556249 -2.530112 3.525333 -0.116910 1.566800 0.299470 -4.396252 -1.584983 -7.964082 19.682559 -8.226751 22.140010 -6.860726 -4.324279 9.697011 3.296578 -0.588422 -7.047757 -2.297808 1.283728 32.883641 -5.250650 -0.877730 5.140280 14.709452 -6.795081 -0.314681 18.506345 -16.766696 -1.577557 50.833860 -44.824336 -17.471873 -4.761777 2.620726 0.104910 0.963950 -0.710110 0.172030 -21.112320 6.100728 1.536606 -22.524889 15.293830 -4.330423 -39.356750 41.405160 -11.366915 1.756926 -1.526658 -0.789340 0.791640 0.831430 0.147390 
0.038090 17.520910 -1.912800 -7.965120 6.261990 8.291506 -15.022585 12.911597 2.320237 -2.788084 -2.090872 -14.009567 5.045887 4.025964 31.503144 -0.721013 6.088346 2.786337 -0.567440 -0.712870 -0.691420 18.577149 -9.710586 4.397858 -2.598606 6.773592 -40.536231 8.583244 -1.862446 -1.472270 0.577215 -1.998131 3.733091 -0.038970 1.548390 0.348240 -4.407083 -1.494602 -7.814720 18.099157 -6.198419 15.502374 -5.822348 -3.921778 12.241692 3.165978 -0.610023 -7.265271 -2.536674 1.651307 33.708338 -7.258270 0.301130 4.462750 17.199378 -9.291748 -0.326132 20.898447 -24.452387 -2.025055 33.480420 -25.071599 -6.625626 -4.913323 2.817583 0.051370 1.005480 -0.673240 0.211380 -23.286061 8.806603 1.262200 -27.328166 23.498740 -4.793404 -25.596999 19.941819 -4.070823 1.875327 -1.569097 -0.740010 0.764870 0.770820 0.164880 
0.133370 17.431690 -1.797840 -8.273783 2.349003 13.215467 -14.881196 12.265175 2.014888 -2.863945 -0.758895 -12.455619 0.591054 4.795107 22.685166 -0.816172 4.929981 3.208148 -0.435670 -0.500350 -0.683930 18.848667 -9.602906 4.784399 -0.925189 9.071334 -44.938771 7.818556 -0.795519 -6.020763 0.548587 -1.814291 3.767499 0.062920 1.489330 0.304150 -4.985464 -0.224781 -7.645991 21.168627 -4.075020 7.248823 -7.934740 -2.434743 13.207259 2.312316 0.254641 -8.204093 -0.567699 2.437152 33.149050 -3.344640 0.105730 4.221470 21.170146 -11.936733 0.018882 23.653887 -27.409047 -1.815369 24.226918 -11.647105 -2.932862 -4.841512 2.905266 -0.011390 0.930280 -0.644320 0.286760 -25.711060 10.564627 0.836697 -26.868228 29.940514 -4.767974 -21.142597 4.194380 -2.462441 2.120213 -1.555007 -0.667870 0.722830 0.647640 0.230550 
0.243500 17.352130 -1.757800 -7.667061 4.926231 15.695248 -14.872362 12.022002 1.952467 -3.103507 -0.228231 -11.188807 -0.566739 4.350072 16.482569 -0.759226 4.301008 3.515671 -0.492600 -0.487660 -0.806700 18.917937 -9.496497 4.954318 -2.944489 9.131850 -49.828019 7.795395 -1.256116 -3.040067 0.594825 -1.782108 3.847703 0.020340 1.592530 0.335290 -5.117415 0.157871 -7.602959 23.078700 -3.980507 2.852452 -8.558517 -2.643729 13.125126 2.227798 2.276600 -8.824947 2.810696 0.314339 32.738699 -4.108500 -0.610580 6.588680 24.419768 -13.302219 -0.775084 25.945068 -32.313402 -2.573134 21.102738 -2.296711 -1.976670 -4.966846 2.857013 -0.149960 1.021500 -0.664630 0.375820 -28.802003 9.954955 0.666590 -22.235919 30.399378 -2.462713 -21.589753 0.941459 -2.167423 2.217689 -1.580632 -0.601420 0.720410 0.615120 0.342710 
0.356020 17.281580 -1.740290 -7.401657 7.558288 14.113509 -14.879766 12.065678 1.991339 -2.384492 0.464219 -7.436076 -1.358915 4.336662 13.227802 -0.801786 4.345964 3.471712 -0.293860 -0.215240 -0.672240 18.913210 -9.532853 4.922723 -5.168721 8.035858 -52.140078 9.328423 -2.901049 5.669491 0.507532 -2.105126 3.635584 0.201740 1.538880 0.411680 -5.105255 0.124500 -7.558559 24.758279 -6.233807 4.194916 -9.132388 -4.869968 13.471758 2.816351 2.564906 -7.468502 3.546554 0.169845 30.540611 -5.666990 -0.321710 3.028350 23.920687 -12.173010 -1.969629 27.213354 -33.890173 -4.036366 25.242315 -0.928435 -2.467919 -5.075780 2.955358 -0.212020 1.054620 -0.605670 0.397680 -29.154849 8.104728 -0.095166 -20.083887 32.123922 -2.660966 -27.206582 1.892413 -3.220930 2.162952 -1.788467 -0.516310 0.716160 0.546350 0.344960 
0.462430 17.207600 -1.729890 -7.912936 8.824442 11.475790 -14.876330 12.102246 2.003147 -1.083259 0.817023 -3.972095 -2.023308 4.578520 12.531557 -0.844231 4.551802 3.299082 0.026170 0.156820 -0.459800 18.921988 -9.513833 4.947312 -7.254303 7.398683 -53.237248 13.206180 -5.395214 14.900922 0.249730 -3.147426 3.107992 0.438020 1.344730 0.478100 -5.115245 -0.006895 -7.569420 27.159212 -8.856886 7.286779 -9.816173 -7.213680 13.679398 3.098947 1.559881 -6.028481 2.155454 1.597495 28.224561 -5.524750 0.190140 -1.520280 21.901645 -10.564140 -2.136743 24.685778 -32.430083 -4.873238 36.640601 -5.804442 -4.370726 -4.996112 3.207356 -0.173890 0.972150 -0.483380 0.419500 -27.348546 6.476800 -0.803935 -18.172049 33.234018 -4.247828 -38.254569 7.814027 -6.250517 2.068919 -2.091367 -0.410630 0.634580 0.414610 0.302480 
0.568470 17.138020 -1.678400 -7.583821 9.101498 8.505006 -14.904109 12.281969 2.079260 -1.056672 1.141546 -0.870114 -1.867289 5.075008 14.318804 -0.895849 5.176379 3.068643 -0.270410 -0.299600 -0.560310 18.880797 -9.451157 4.887326 -8.934701 6.508919 -52.395381 16.616913 -8.677409 22.888363 0.098083 -4.550780 2.566643 0.206650 1.396600 0.473710 -4.999249 -0.560234 -7.656320 26.982429 -9.752227 10.268540 -7.934543 -8.116127 14.325169 2.865120 1.431518 -6.566040 1.435613 0.883739 31.444789 -6.330160 -0.419320 -1.303120 20.331617 -11.634228 -1.180486 19.837648 -31.373667 -4.613946 47.670392 -13.345690 -8.224086 -5.072206 2.990655 0.027200 0.960790 -0.540000 0.223670 -25.203041 7.173142 0.635945 -13.964415 29.637602 -5.661949 -51.833562 17.564831 -11.248890 1.917502 -1.868354 -0.573770 0.685000 0.697100 0.181470 
0.672870 17.102980 -1.651570 -7.158352 8.337975 4.426540 -14.969732 12.543269 2.245685 -1.678220 1.473298 2.244292 -1.220960 5.531999 17.435631 -0.495684 5.527896 2.975535 -0.299320 -0.297170 -0.624280 18.768539 -9.463870 4.736499 -9.405353 5.700655 -50.006553 18.041255 -11.518829 30.052547 -0.176397 -5.918288 2.180193 0.072460 1.356380 0.481840 -4.725180 -1.186870 -7.834061 25.814634 -10.494082 16.071998 -5.995706 -8.772885 16.045636 3.450415 2.018593 -7.545067 2.019525 -0.064438 34.646285 -5.936300 -0.660360 1.067960 18.184677 -11.892660 0.509057 12.599918 -29.550369 -4.795359 65.250243 -21.321948 -16.015149 -4.907105 3.003466 -0.020480 0.906850 -0.476270 0.289940 -23.910843 7.103948 2.348133 -7.284920 24.559161 -6.265501 -68.602840 25.301501 -20.108533 1.919863 -1.867587 -0.442250 0.606030 0.622110 0.269570 
0.798710 17.107690 -1.594530 -5.526765 6.680059 2.379471 -15.006916 12.547741 2.454360 -5.031068 0.950664 1.764060 0.053581 5.635885 24.159736 -0.123709 5.952806 2.834886 -0.291090 -0.249760 -0.682050 18.716353 -9.504819 4.612208 -10.107079 4.920790 -48.288934 18.265312 -13.603371 35.409695 -0.385068 -7.107307 1.814330 0.019090 1.338080 0.539010 -4.573476 -1.373268 -7.944752 24.782321 -10.995906 20.173300 -5.754973 -9.449385 17.242373 4.427360 2.594512 -7.391709 3.294926 0.296232 35.915287 -6.582310 1.115480 5.997880 12.283065 -9.441286 1.507377 5.740310 -28.826679 -2.982787 84.967635 -27.536016 -27.094979 -4.755527 3.061070 -0.166540 0.933090 -0.468310 0.382180 -19.450443 4.363302 2.617699 1.730914 25.813767 -4.203149 -88.522326 28.783193 -32.797163 1.927624 -1.981468 -0.312150 0.435770 0.510500 0.359550 
0.873800 17.088930 -1.573240 -2.736874 5.219634 -0.312446 -15.168049 12.626735 2.921634 -9.050609 -1.443430 -0.733010 -0.090192 6.454216 35.124972 0.133251 7.351834 2.354588 -0.305930 -0.285840 -0.678820 18.549345 -9.369034 4.239100 -11.046353 3.452080 -45.056157 17.624928 -14.952718 39.125810 -0.507674 -7.834240 1.599744 0.031010 1.354240 0.475150 -4.076905 -2.268476 -8.132069 20.036642 -11.166582 28.097409 -3.395710 -10.042671 17.728859 4.022678 2.449819 -6.534573 2.935352 0.690265 34.504502 -5.603440 1.124220 5.170360 9.754836 -2.788566 0.533630 -5.552546 -31.458640 1.572491 100.227002 -32.295501 -41.360950 -4.727209 2.894407 -0.117120 0.916340 -0.497340 0.375430 -15.678330 -1.611972 1.829093 13.509651 27.877511 0.521931 -106.172078 33.231489 -50.757471 1.857761 -1.912848 -0.388150 0.504720 0.525580 0.323400 
0.960810 17.038330 -1.544290 -0.342943 3.954721 -1.849822 -15.286279 12.399844 3.596286 -12.469393 -6.129291 -5.666186 -1.870508 8.071771 46.897256 0.277658 9.370948 1.633282 -0.479600 -0.653620 -0.606560 18.461462 -9.246211 3.758953 -11.056492 2.304585 -42.081256 15.869315 -15.625657 41.484664 -0.547223 -8.016132 1.482842 -0.102340 1.305990 0.392160 -3.759833 -2.820128 -8.342045 17.640084 -10.814745 32.894194 -2.076285 -9.487954 18.989422 3.148642 2.406898 -7.618803 2.070153 -0.193140 36.369657 -5.942930 0.832340 2.178130 6.786638 -1.196280 0.666471 -15.978833 -32.494522 5.246859 110.291801 -37.044660 -57.636338 -4.702516 2.512410 0.211480 0.815580 -0.503290 0.181690 -11.325369 -3.527412 3.803603 25.198196 22.195591 2.076612 -125.479647 38.799837 -80.818374 1.761724 -1.689915 -0.631890 0.621980 0.725500 0.110010 
1.044170 16.912810 -1.522230 1.159492 2.368074 -2.757474 -15.421186 11.909259 4.546169 -12.769616 -12.975986 -12.911050 -8.002362 13.690748 60.369252 1.053404 12.341584 0.727795 -0.555880 -0.757690 -0.614090 18.401654 -9.007633 3.178105 -10.299937 1.311100 -39.407470 13.599285 -15.811144 43.270279 -0.581860 -8.031732 1.517368 -0.194360 1.248830 0.296020 -3.470342 -3.258706 -8.677380 15.308682 -11.022927 36.723406 0.155764 -9.210708 18.376843 2.106409 1.088005 -8.927459 -0.550865 0.984082 38.246290 -5.083320 1.599720 1.584040 5.934151 0.556741 2.348578 -29.747985 -30.117008 8.212229 119.760102 -47.255050 -84.481430 -4.589349 2.435847 0.317270 0.717710 -0.475070 0.148270 -8.771162 -4.087059 4.397191 35.928382 20.080047 2.640397 -137.541053 45.079667 -111.063591 1.816665 -1.711507 -0.686030 0.653090 0.733430 0.074220 
